<svg width="3000" height="1251" viewBox="0 0 3000 1251" fill="none" xmlns="http://www.w3.org/2000/svg">
<g clip-path="url(#clip0_701_39)">
<path fill-rule="evenodd" clip-rule="evenodd" d="M2401.66 0.795625L2846.14 1213.28L3000 1213.33V1222.03H2510.27V1213.33H2654.45L2508.3 814.606H2211.61V814.765L2213.2 819.403C2225.05 854.592 2230.93 891.463 2230.57 928.585V1078.05C2230.57 1154.93 2264.52 1232.85 2329.36 1232.85C2367.43 1232.85 2397.82 1219.44 2434 1186.34L2439.16 1191.14C2399.86 1232.63 2352.27 1250.27 2280.91 1250.27C2227.05 1250.27 2180.95 1237.31 2143.86 1211.78L2136.84 1206.74C2088.02 1169.82 2056.34 1109.49 2042.7 1027.38L2040.52 1014.13L2038.25 994.076L2038.02 990.621L1956.23 1213.21H2072.3V1221.94H1829.45V1213.21H1946.77L2036.57 968.775V968.253C2035.61 953.828 2035.04 939.38 2034.86 924.925V818.243C2034.86 687.079 1937.36 611.835 1767.34 611.835H1600.23V1213.28H1745.02V1221.99H1179.11V1213.28H1323.32L1177.16 814.561H771.545L626.75 1208.87L632.795 1207.87C822.932 1175.09 910.364 1029.95 911.545 877.119H920.364V1221.99H0L683.182 49.6697H408.455C180.773 49.6697 77.7273 225.548 76.1364 400.881H67.3409V40.9178H896.614L891.568 49.6697L213.545 1213.28H570.25C579.114 1213.28 587.932 1212.85 596.818 1212.15C602.727 1211.74 608.682 1211.15 614.727 1210.4L616.886 1210.17L1061.43 0H1070.23L1070.52 0.795625L1419.82 953.636V49.6697H1276V40.8042H1770.95C2008.84 40.8042 2174.91 162.921 2174.91 337.868C2174.91 465.44 2061.16 571.327 1891.95 601.447L1860.89 605.402L1892.18 608.585C1994.8 620.337 2076.27 651.912 2134.02 702.4L2134.41 702.764L2392.57 0H2401.34L2401.66 0.795625ZM2207.3 803.695L2208.16 805.831H2505L2305.61 261.897L2141.5 709.038L2142.39 709.879L2150.73 718.154C2174.87 742.783 2194.07 771.836 2207.3 803.695ZM1600.34 603.084V49.6697H1727.86C1898.23 49.6697 1988.18 150.009 1988.18 339.732C1988.18 541.525 1936.55 603.084 1767.34 603.084H1600.34ZM974.591 261.897L774.773 805.854H1173.98L974.591 261.897Z" fill="black"/>
</g>
<defs>
<clipPath id="clip0_701_39">
<rect width="3000" height="1250.27" fill="white"/>
</clipPath>
</defs>
</svg>
